<svg
        width="25"
        height="25"
        viewBox="0 0 25 25"
        fill="none"
        xmlns="http://www.w3.org/2000/svg">
        <path
          fillRule="evenodd"
          clipRule="evenodd"
          d="M16.3036 15.3851H17.1505L22.5 20.691L20.9027 22.2722L15.5425 16.9769V16.1385L15.253 15.8414C14.0309 16.8814 12.4443 17.5075 10.7183 17.5075C6.86964 17.5075 3.75 14.4194 3.75 10.6097C3.75 6.79999 6.86964 3.71191 10.7183 3.71191C14.5669 3.71191 17.6865 6.79999 17.6865 10.6097C17.6865 12.3182 17.054 13.8888 16.0034 15.0985L16.3036 15.3851ZM5.89404 10.6095C5.89404 13.2518 8.04885 15.3848 10.7182 15.3848C13.3876 15.3848 15.5424 13.2518 15.5424 10.6095C15.5424 7.96709 13.3876 5.83409 10.7182 5.83409C8.04885 5.83409 5.89404 7.96709 5.89404 10.6095Z"
          fill="#5C296B"
        />
      </svg>
